<svg width="84" height="20" viewBox="0 0 84 20" fill="none" xmlns="http://www.w3.org/2000/svg">
<path d="M16.2542 14.9525V8.635C16.5221 8.62523 16.7797 8.52905 16.9884 8.36083C17.1972 8.19262 17.346 7.96139 17.4125 7.70167C17.4869 7.43671 17.4698 7.1544 17.364 6.90036C17.2581 6.64632 17.0697 6.43539 16.8292 6.30167L10.6208 2.71833C10.4313 2.61182 10.2175 2.55588 10 2.55588C9.78255 2.55588 9.56875 2.61182 9.37917 2.71833L3.17084 6.30167C2.9303 6.43539 2.74188 6.64632 2.63603 6.90036C2.53018 7.1544 2.51309 7.43671 2.5875 7.70167C2.65579 7.96981 2.81186 8.20739 3.03085 8.37654C3.24984 8.54569 3.51914 8.63667 3.79584 8.635H3.90417V14.9433H3.80417C3.47265 14.9433 3.15471 15.075 2.92029 15.3095C2.68587 15.5439 2.55417 15.8618 2.55417 16.1933C2.55417 16.5249 2.68587 16.8428 2.92029 17.0772C3.15471 17.3116 3.47265 17.4433 3.80417 17.4433H16.1958C16.509 17.4248 16.8038 17.2893 17.0216 17.0635C17.2395 16.8378 17.3645 16.5384 17.3718 16.2248C17.3791 15.9112 17.2683 15.6062 17.0613 15.3705C16.8542 15.1349 16.5661 14.9856 16.2542 14.9525ZM3.79584 7.80167C3.70399 7.8005 3.61505 7.7693 3.54259 7.71286C3.47013 7.65641 3.41812 7.5778 3.39451 7.48903C3.3709 7.40026 3.37699 7.30621 3.41183 7.22122C3.44668 7.13623 3.50837 7.06498 3.5875 7.01833L9.79584 3.44417C9.85744 3.40697 9.92804 3.38731 10 3.38731C10.072 3.38731 10.1426 3.40697 10.2042 3.44417L16.4167 7.01833C16.4991 7.06277 16.5642 7.13371 16.6014 7.2197C16.6386 7.30568 16.6458 7.40169 16.6217 7.49223C16.5976 7.58277 16.5437 7.66255 16.4687 7.71869C16.3937 7.77484 16.302 7.80407 16.2083 7.80167H3.79584ZM15.4208 8.635V14.9433H12.4167V8.635H15.4208ZM11.5792 8.635V14.9433H8.57084V8.635H11.5792ZM7.7375 8.635V14.9433H4.7375V8.635H7.7375ZM16.1958 16.61H3.80417C3.69366 16.61 3.58768 16.5661 3.50954 16.488C3.4314 16.4098 3.3875 16.3038 3.3875 16.1933C3.3875 16.0828 3.4314 15.9768 3.50954 15.8987C3.58768 15.8206 3.69366 15.7767 3.80417 15.7767H16.1958C16.3063 15.7767 16.4123 15.8206 16.4905 15.8987C16.5686 15.9768 16.6125 16.0828 16.6125 16.1933C16.6125 16.3038 16.5686 16.4098 16.4905 16.488C16.4123 16.5661 16.3063 16.61 16.1958 16.61Z" fill="#6B5DC7"/>
<path d="M29.9787 15.5H28.348L32.0121 5.31818H33.7869L37.451 15.5H35.8203L32.9418 7.16761H32.8622L29.9787 15.5ZM30.2521 11.5128H35.5419V12.8054H30.2521V11.5128ZM41.8956 15.6541C41.1565 15.6541 40.5201 15.4867 39.9865 15.152C39.4562 14.8139 39.0485 14.3482 38.7635 13.755C38.4785 13.1617 38.3359 12.4822 38.3359 11.7166C38.3359 10.9411 38.4818 10.2566 38.7734 9.66335C39.0651 9.06676 39.4761 8.60109 40.0064 8.26633C40.5367 7.93158 41.1615 7.7642 41.8807 7.7642C42.4607 7.7642 42.9777 7.87192 43.4318 8.08736C43.8859 8.29948 44.2521 8.59777 44.5305 8.98224C44.8123 9.36671 44.9796 9.81581 45.0327 10.3295H43.5859C43.5064 9.97159 43.3241 9.66335 43.0391 9.40483C42.7573 9.14631 42.3795 9.01705 41.9055 9.01705C41.4912 9.01705 41.1283 9.12642 40.8168 9.34517C40.5085 9.56061 40.2682 9.86884 40.0959 10.2699C39.9235 10.6676 39.8374 11.1383 39.8374 11.6818C39.8374 12.2386 39.9219 12.7192 40.0909 13.1236C40.2599 13.5279 40.4986 13.8411 40.8068 14.0632C41.1184 14.2853 41.4846 14.3963 41.9055 14.3963C42.1873 14.3963 42.4425 14.3449 42.6712 14.2422C42.9032 14.1361 43.0971 13.9853 43.2528 13.7898C43.4119 13.5942 43.523 13.3589 43.5859 13.0838H45.0327C44.9796 13.5777 44.8189 14.0185 44.5504 14.4062C44.282 14.794 43.9223 15.099 43.4716 15.321C43.0241 15.5431 42.4988 15.6541 41.8956 15.6541ZM49.839 15.6541C49.0998 15.6541 48.4635 15.4867 47.9299 15.152C47.3996 14.8139 46.9919 14.3482 46.7069 13.755C46.4218 13.1617 46.2793 12.4822 46.2793 11.7166C46.2793 10.9411 46.4251 10.2566 46.7168 9.66335C47.0085 9.06676 47.4194 8.60109 47.9498 8.26633C48.4801 7.93158 49.1048 7.7642 49.824 7.7642C50.4041 7.7642 50.9211 7.87192 51.3752 8.08736C51.8292 8.29948 52.1955 8.59777 52.4739 8.98224C52.7556 9.36671 52.923 9.81581 52.976 10.3295H51.5293C51.4498 9.97159 51.2675 9.66335 50.9824 9.40483C50.7007 9.14631 50.3229 9.01705 49.8489 9.01705C49.4346 9.01705 49.0717 9.12642 48.7601 9.34517C48.4519 9.56061 48.2116 9.86884 48.0392 10.2699C47.8669 10.6676 47.7807 11.1383 47.7807 11.6818C47.7807 12.2386 47.8652 12.7192 48.0343 13.1236C48.2033 13.5279 48.4419 13.8411 48.7502 14.0632C49.0617 14.2853 49.428 14.3963 49.8489 14.3963C50.1306 14.3963 50.3858 14.3449 50.6145 14.2422C50.8465 14.1361 51.0404 13.9853 51.1962 13.7898C51.3553 13.5942 51.4663 13.3589 51.5293 13.0838H52.976C52.923 13.5777 52.7623 14.0185 52.4938 14.4062C52.2253 14.794 51.8657 15.099 51.415 15.321C50.9675 15.5431 50.4422 15.6541 49.839 15.6541ZM57.7823 15.6541C57.0664 15.6541 56.4416 15.4901 55.908 15.1619C55.3744 14.8338 54.9601 14.3748 54.6651 13.7848C54.3701 13.1948 54.2227 12.5054 54.2227 11.7166C54.2227 10.9245 54.3701 10.2318 54.6651 9.63849C54.9601 9.04522 55.3744 8.58452 55.908 8.25639C56.4416 7.92827 57.0664 7.7642 57.7823 7.7642C58.4982 7.7642 59.123 7.92827 59.6566 8.25639C60.1902 8.58452 60.6045 9.04522 60.8995 9.63849C61.1945 10.2318 61.342 10.9245 61.342 11.7166C61.342 12.5054 61.1945 13.1948 60.8995 13.7848C60.6045 14.3748 60.1902 14.8338 59.6566 15.1619C59.123 15.4901 58.4982 15.6541 57.7823 15.6541ZM57.7873 14.4062C58.2513 14.4062 58.6358 14.2836 58.9407 14.0384C59.2456 13.7931 59.471 13.4666 59.6168 13.0589C59.766 12.6513 59.8406 12.2022 59.8406 11.7116C59.8406 11.2244 59.766 10.777 59.6168 10.3693C59.471 9.95833 59.2456 9.62855 58.9407 9.37997C58.6358 9.13139 58.2513 9.0071 57.7873 9.0071C57.32 9.0071 56.9322 9.13139 56.6239 9.37997C56.319 9.62855 56.092 9.95833 55.9428 10.3693C55.797 10.777 55.7241 11.2244 55.7241 11.7116C55.7241 12.2022 55.797 12.6513 55.9428 13.0589C56.092 13.4666 56.319 13.7931 56.6239 14.0384C56.9322 14.2836 57.32 14.4062 57.7873 14.4062ZM67.8386 12.3331V7.86364H69.3301V15.5H67.8684V14.1776H67.7889C67.6132 14.5852 67.3315 14.925 66.9437 15.1967C66.5592 15.4652 66.0803 15.5994 65.5069 15.5994C65.0164 15.5994 64.5822 15.4917 64.2044 15.2763C63.8298 15.0575 63.5349 14.7344 63.3194 14.3068C63.1073 13.8793 63.0012 13.3506 63.0012 12.7209V7.86364H64.4877V12.5419C64.4877 13.0623 64.6319 13.4766 64.9203 13.7848C65.2086 14.093 65.5832 14.2472 66.0439 14.2472C66.3223 14.2472 66.599 14.1776 66.8741 14.0384C67.1525 13.8991 67.3829 13.6887 67.5652 13.407C67.7508 13.1252 67.8419 12.7673 67.8386 12.3331ZM72.8139 10.9659V15.5H71.3274V7.86364H72.7543V9.10653H72.8487C73.0244 8.70218 73.2995 8.37737 73.674 8.1321C74.0518 7.88684 74.5275 7.7642 75.1009 7.7642C75.6212 7.7642 76.0769 7.87358 76.468 8.09233C76.8591 8.30777 77.1624 8.62926 77.3778 9.05682C77.5933 9.48437 77.701 10.013 77.701 10.6428V15.5H76.2145V10.8217C76.2145 10.2682 76.0703 9.8357 75.782 9.52415C75.4936 9.20928 75.0975 9.05185 74.5938 9.05185C74.2491 9.05185 73.9425 9.12642 73.674 9.27557C73.4089 9.42472 73.1984 9.64347 73.0426 9.93182C72.8902 10.2169 72.8139 10.5616 72.8139 10.9659ZM83.2592 7.86364V9.05682H79.0881V7.86364H83.2592ZM80.2067 6.03409H81.6932V13.2578C81.6932 13.5462 81.7363 13.7633 81.8224 13.9091C81.9086 14.0516 82.0196 14.1494 82.1555 14.2024C82.2947 14.2521 82.4455 14.277 82.608 14.277C82.7273 14.277 82.8317 14.2687 82.9212 14.2521C83.0107 14.2356 83.0803 14.2223 83.13 14.2124L83.3984 15.4403C83.3123 15.4735 83.1896 15.5066 83.0305 15.5398C82.8714 15.5762 82.6726 15.5961 82.4339 15.5994C82.0429 15.6061 81.6783 15.5365 81.3402 15.3906C81.0021 15.2448 80.7287 15.0194 80.5199 14.7145C80.3111 14.4096 80.2067 14.0268 80.2067 13.5661V6.03409Z" fill="#6B5DC7"/>
</svg>
